<svg xmlns="http://www.w3.org/2000/svg" viewBox="0 0 640 256" font-family="ui-monospace,'Cascadia Code',Menlo,Consolas,monospace">
  <rect width="640" height="256" fill="#0b120e"/>
  <text xml:space="preserve" x="24" y="36" font-size="15"><tspan fill="#34d399">$</tspan><tspan fill="#cbd5e1"> ./sched</tspan><tspan fill="#64748b"> --g=64 --p=2</tspan></text>
  <line x1="24" y1="52" x2="616" y2="52" stroke="#1e2b24"/>

  <!-- two P run queues feeding Ms; a global queue to steal from -->
  <text xml:space="preserve" x="46" y="102" font-size="13" fill="#fbbf24">P0</text>
  <rect x="76" y="84" width="180" height="28" fill="none" stroke="#27352d" stroke-width="1.5"/>
  <rect x="84" y="89" width="18" height="18" fill="#fbbf24"/>
  <rect x="108" y="89" width="18" height="18" fill="#fbbf24" opacity="0.7"/>
  <rect x="132" y="89" width="18" height="18" fill="#fbbf24" opacity="0.45"/>
  <rect x="156" y="89" width="18" height="18" fill="#fbbf24" opacity="0.25"/>
  <path d="M256 98 L306 98" stroke="#fbbf24" stroke-width="1.5"/>
  <path d="M306 98 l-8 -5 v10 z" fill="#fbbf24"/>
  <rect x="310" y="82" width="64" height="32" fill="none" stroke="#94a3b8"/>
  <text xml:space="preserve" x="342" y="103" font-size="13" fill="#94a3b8" text-anchor="middle">M0</text>

  <text xml:space="preserve" x="46" y="172" font-size="13" fill="#fbbf24">P1</text>
  <rect x="76" y="154" width="180" height="28" fill="none" stroke="#27352d" stroke-width="1.5"/>
  <rect x="84" y="159" width="18" height="18" fill="#fbbf24" opacity="0.85"/>
  <rect x="108" y="159" width="18" height="18" fill="#fbbf24" opacity="0.5"/>
  <path d="M256 168 L306 168" stroke="#fbbf24" stroke-width="1.5"/>
  <path d="M306 168 l-8 -5 v10 z" fill="#fbbf24"/>
  <rect x="310" y="152" width="64" height="32" fill="none" stroke="#94a3b8"/>
  <text xml:space="preserve" x="342" y="173" font-size="13" fill="#94a3b8" text-anchor="middle">M1</text>

  <!-- global queue, and a steal -->
  <text xml:space="preserve" x="452" y="76" font-size="12" fill="#64748b">global runq</text>
  <rect x="452" y="84" width="28" height="98" fill="none" stroke="#27352d" stroke-width="1.5"/>
  <rect x="457" y="90" width="18" height="18" fill="#fbbf24" opacity="0.8"/>
  <rect x="457" y="113" width="18" height="18" fill="#fbbf24" opacity="0.55"/>
  <rect x="457" y="136" width="18" height="18" fill="#fbbf24" opacity="0.35"/>
  <path d="M452 168 C 400 200 300 200 262 186" stroke="#fbbf24" stroke-width="1.2" fill="none" stroke-dasharray="5 4"/>
  <path d="M262 186 l10 -1 -5 9 z" fill="#fbbf24"/>
  <text xml:space="preserve" x="330" y="216" font-size="12" fill="#fbbf24" opacity="0.8">steal</text>

  <text xml:space="preserve" x="536" y="103" font-size="13" fill="#64748b">G = fn +</text>
  <text xml:space="preserve" x="536" y="121" font-size="13" fill="#64748b">  stack</text>

  <text xml:space="preserve" x="40" y="240" font-size="12" fill="#64748b">contexts · queues · a scheduler in userspace</text>
</svg>
