<svg xmlns="http://www.w3.org/2000/svg" viewBox="0 0 640 256" font-family="ui-monospace,'Cascadia Code',Menlo,Consolas,monospace">
  <rect width="640" height="256" fill="#0b120e"/>
  <text xml:space="preserve" x="24" y="36" font-size="15"><tspan fill="#34d399">$</tspan><tspan fill="#cbd5e1"> ./raft</tspan><tspan fill="#64748b"> --nodes=5</tspan></text>
  <line x1="24" y1="52" x2="616" y2="52" stroke="#1e2b24"/>

  <text xml:space="preserve" x="600" y="80" font-size="13" fill="#a78bfa" text-anchor="end">term=7</text>

  <!-- leader on top, heartbeats out to the quorum -->
  <path d="M320 116 L212 136" stroke="#a78bfa" stroke-width="1.2" stroke-dasharray="4 4"/>
  <path d="M320 116 L428 136" stroke="#a78bfa" stroke-width="1.2" stroke-dasharray="4 4"/>
  <path d="M312 118 L262 190" stroke="#a78bfa" stroke-width="1.2" stroke-dasharray="4 4"/>
  <path d="M328 118 L378 190" stroke="#a78bfa" stroke-width="1.2" stroke-dasharray="4 4"/>

  <circle cx="320" cy="98" r="20" fill="#a78bfa"/>
  <circle cx="320" cy="98" r="26" fill="none" stroke="#a78bfa" opacity="0.25"/>
  <text xml:space="preserve" x="320" y="103" font-size="14" fill="#0b120e" text-anchor="middle" font-weight="bold">L</text>

  <circle cx="196" cy="140" r="16" fill="none" stroke="#94a3b8" stroke-width="1.5"/>
  <text xml:space="preserve" x="196" y="145" font-size="12" fill="#94a3b8" text-anchor="middle">F</text>
  <text xml:space="preserve" x="166" y="122" font-size="11" fill="#34d399">ok</text>

  <circle cx="444" cy="140" r="16" fill="none" stroke="#94a3b8" stroke-width="1.5"/>
  <text xml:space="preserve" x="444" y="145" font-size="12" fill="#94a3b8" text-anchor="middle">F</text>
  <text xml:space="preserve" x="462" y="122" font-size="11" fill="#34d399">ok</text>

  <circle cx="254" cy="204" r="16" fill="none" stroke="#94a3b8" stroke-width="1.5"/>
  <text xml:space="preserve" x="254" y="209" font-size="12" fill="#94a3b8" text-anchor="middle">F</text>

  <!-- one node partitioned away -->
  <circle cx="386" cy="204" r="16" fill="none" stroke="#64748b" stroke-width="1.5" stroke-dasharray="3 3"/>
  <text xml:space="preserve" x="386" y="209" font-size="12" fill="#64748b" text-anchor="middle">F</text>
  <text xml:space="preserve" x="410" y="209" font-size="11" fill="#f87171">×</text>

  <!-- replicated log -->
  <text xml:space="preserve" x="40" y="96" font-size="12" fill="#64748b">log[]</text>
  <rect x="40" y="104" width="22" height="22" fill="#a78bfa"/>
  <rect x="40" y="130" width="22" height="22" fill="#a78bfa" opacity="0.7"/>
  <rect x="40" y="156" width="22" height="22" fill="#a78bfa" opacity="0.4"/>
  <rect x="40" y="182" width="22" height="22" fill="none" stroke="#27352d"/>
  <text xml:space="preserve" x="51" y="222" font-size="11" fill="#64748b" text-anchor="middle">idx 4</text>

  <text xml:space="preserve" x="530" y="160" font-size="12" fill="#94a3b8">quorum</text>
  <text xml:space="preserve" x="530" y="178" font-size="12" fill="#94a3b8">3 of 5</text>

  <text xml:space="preserve" x="40" y="244" font-size="12" fill="#64748b">elections · replication · commit — the paper is the spec</text>
</svg>
