<svg xmlns="http://www.w3.org/2000/svg" viewBox="0 0 640 256" font-family="ui-monospace,'Cascadia Code',Menlo,Consolas,monospace">
  <rect width="640" height="256" fill="#0b120e"/>
  <text xml:space="preserve" x="24" y="36" font-size="15"><tspan fill="#34d399">$</tspan><tspan fill="#cbd5e1"> ./ask</tspan><tspan fill="#64748b"> "why rubber ducks?"</tspan></text>
  <line x1="24" y1="52" x2="616" y2="52" stroke="#1e2b24"/>

  <!-- docs → chunks → vector space -->
  <g stroke="#94a3b8" fill="none">
    <rect x="44" y="78" width="44" height="56"/>
    <rect x="52" y="70" width="44" height="56" fill="#0b120e"/>
  </g>
  <g stroke="#64748b">
    <line x1="60" y1="84" x2="88" y2="84"/><line x1="60" y1="94" x2="82" y2="94"/><line x1="60" y1="104" x2="86" y2="104"/><line x1="60" y1="114" x2="78" y2="114"/>
  </g>
  <text xml:space="preserve" x="70" y="152" font-size="11" fill="#64748b" text-anchor="middle">docs</text>

  <path d="M100 98 L136 98" stroke="#22d3ee" stroke-width="1.2"/>
  <path d="M136 98 l-7 -4 v8 z" fill="#22d3ee"/>

  <rect x="142" y="72" width="20" height="14" fill="#22d3ee" opacity="0.7"/>
  <rect x="142" y="92" width="20" height="14" fill="#22d3ee" opacity="0.45"/>
  <rect x="142" y="112" width="20" height="14" fill="#22d3ee" opacity="0.25"/>
  <text xml:space="preserve" x="152" y="152" font-size="11" fill="#64748b" text-anchor="middle">chunks</text>

  <path d="M168 98 L204 98" stroke="#22d3ee" stroke-width="1.2"/>
  <path d="M204 98 l-7 -4 v8 z" fill="#22d3ee"/>
  <text xml:space="preserve" x="186" y="88" font-size="10" fill="#64748b" text-anchor="middle">embed</text>

  <!-- the vector space: query star, top-k circled -->
  <rect x="210" y="64" width="270" height="152" fill="none" stroke="#1e2b24"/>
  <g fill="#64748b">
    <circle cx="238" cy="94" r="3"/><circle cx="270" cy="180" r="3"/><circle cx="300" cy="86" r="3"/><circle cx="252" cy="140" r="3"/><circle cx="330" cy="196" r="3"/><circle cx="440" cy="90" r="3"/><circle cx="455" cy="182" r="3"/><circle cx="410" cy="200" r="3"/><circle cx="245" cy="200" r="3"/><circle cx="460" cy="130" r="3"/>
  </g>
  <g fill="#22d3ee">
    <circle cx="352" cy="128" r="4"/><circle cx="382" cy="150" r="4"/><circle cx="338" cy="158" r="4"/>
  </g>
  <circle cx="358" cy="142" r="42" fill="none" stroke="#22d3ee" stroke-dasharray="4 4" opacity="0.7"/>
  <text xml:space="preserve" x="358" y="147" font-size="16" fill="#22d3ee" text-anchor="middle">✱</text>
  <text xml:space="preserve" x="358" y="232" font-size="11" fill="#64748b" text-anchor="middle">cosine · top-k=3</text>

  <!-- grounded answer -->
  <path d="M486 140 L520 140" stroke="#22d3ee" stroke-width="1.2"/>
  <path d="M520 140 l-7 -4 v8 z" fill="#22d3ee"/>
  <text xml:space="preserve" x="528" y="132" font-size="12" fill="#cbd5e1">answer</text>
  <text xml:space="preserve" x="528" y="150" font-size="12" fill="#22d3ee">[1][2][3]</text>

  <text xml:space="preserve" x="40" y="246" font-size="12" fill="#64748b">chunk · embed · retrieve · cite — no framework, your code</text>
</svg>
