<svg xmlns="http://www.w3.org/2000/svg" viewBox="-0.5 -2.2 24 24" fill="none" stroke="currentColor" stroke-width="1.5" stroke-linecap="round" stroke-linejoin="round">
  <path d="M5.4 6.0 C5.7 4.5 7.1 3.4 8.9 3.4 C11 3.4 12.5 5 12.5 7.1 C12.5 8.2 12 9.1 11.2 9.7 C14.6 10 18.4 9.2 20.6 7.4 C20.9 12.3 17.6 16.2 13 16.2 C9.4 16.2 6.6 14.4 6.1 11.4 C5.9 10.3 6 9.6 5.7 8.9 C4.6 9 3.2 8.9 2.6 8.5 C2 8.1 2 7.4 2.6 7.1 C3.5 6.6 4.5 6.3 5.4 6.0 Z"/>
  <circle cx="8.2" cy="6.3" r="0.9" fill="currentColor" stroke="none"/>
</svg>
